<?xml version="1.0" encoding="utf-8"?>
<!-- Generator: Adobe Illustrator 23.0.1, SVG Export Plug-In . SVG Version: 6.00 Build 0)  -->
<svg version="1.1" id="Layer_1" xmlns="http://www.w3.org/2000/svg" xmlns:xlink="http://www.w3.org/1999/xlink" x="0px" y="0px"
	 viewBox="0 0 100 100" style="enable-background:new 0 0 100 100;" xml:space="preserve">
<style type="text/css">
	.st0{fill-rule:evenodd;clip-rule:evenodd;fill:#00FFFF;}
</style>
<g>
	<g>
		<path class="st0" d="M37.9,50.4v45.1c0,0.6,0.5,1.2,1.2,1.2h16.8c0.6,0,1.2-0.5,1.2-1.2V49.6h12.1c0.6,0,1.1-0.5,1.2-1.1l1.2-13.8
			c0.1-0.7-0.5-1.3-1.2-1.3H57v-9.8c0-2.3,1.9-4.2,4.2-4.2h9.4c0.6,0,1.2-0.5,1.2-1.2V4.5c0-0.6-0.5-1.2-1.2-1.2H54.7
			c-9.3,0-16.8,7.5-16.8,16.8v13.3h-8.4c-0.6,0-1.2,0.5-1.2,1.2v13.8c0,0.6,0.5,1.2,1.2,1.2h8.4V50.4z"/>
	</g>
</g>
</svg>
