<?xml version="1.0" encoding="utf-8"?>
<!-- Generator: Adobe Illustrator 23.0.1, SVG Export Plug-In . SVG Version: 6.00 Build 0)  -->
<svg version="1.1" id="Layer_1" xmlns="http://www.w3.org/2000/svg" xmlns:xlink="http://www.w3.org/1999/xlink" x="0px" y="0px"
	 viewBox="0 0 100 100" style="enable-background:new 0 0 100 100;" xml:space="preserve">
<style type="text/css">
	.st0{fill:#00FFFF;}
</style>
<g>
	<g>
		<g>
			<g>
				<path class="st0" d="M95.4,59.8V92c0,0.8-0.6,1.4-1.4,1.4H77.4c-0.8,0-1.4-0.6-1.4-1.4V62.1c0-7.9-2.8-13.2-9.9-13.2
					c-5.4,0-8.6,3.6-10,7.1c-0.5,1.3-0.6,3-0.6,4.7V92c0,0.8-0.6,1.4-1.4,1.4H37.5c-0.8,0-1.4-0.6-1.4-1.4c0-8,0.2-46.6,0-55.6
					c0-0.8,0.6-1.5,1.4-1.5h16.5c0.8,0,1.4,0.6,1.4,1.4v6.9c0,0.1-0.1,0.1-0.1,0.2h0.1v-0.2c2.6-4,7.2-9.7,17.5-9.7
					C85.8,33.5,95.4,41.9,95.4,59.8L95.4,59.8z M7.3,93.4h16.6c0.8,0,1.4-0.6,1.4-1.4V36.3c0-0.8-0.6-1.4-1.4-1.4H7.3
					c-0.8,0-1.4,0.6-1.4,1.4V92C5.8,92.8,6.5,93.4,7.3,93.4z"/>
			</g>
		</g>
	</g>
	<g>
		<path class="st0" d="M25.4,17c0,5.8-4.7,10.4-10.4,10.4S4.6,22.8,4.6,17S9.2,6.6,15,6.6S25.4,11.3,25.4,17z"/>
	</g>
</g>
</svg>
